<svg xmlns="http://www.w3.org/2000/svg" width="16" height="16" viewBox="0 0 16 16" fill="none">
  <path d="M2.99999 6.33334H2.66666C2.03812 6.33334 1.72385 6.33334 1.52859 6.5286C1.33333 6.72388 1.33333 7.03814 1.33333 7.66668V13.3333C1.33333 13.9619 1.33333 14.2761 1.52859 14.4714C1.72385 14.6667 2.03812 14.6667 2.66666 14.6667H2.99999C3.62853 14.6667 3.9428 14.6667 4.13807 14.4714C4.33333 14.2761 4.33333 13.9619 4.33333 13.3333V7.66668C4.33333 7.03814 4.33333 6.72388 4.13807 6.5286C3.9428 6.33334 3.62853 6.33334 2.99999 6.33334Z" stroke="#F4FAFD"/>
  <path d="M4.33333 2.83334C4.33333 3.66177 3.66175 4.33334 2.83333 4.33334C2.0049 4.33334 1.33333 3.66177 1.33333 2.83334C1.33333 2.00492 2.0049 1.33334 2.83333 1.33334C3.66175 1.33334 4.33333 2.00492 4.33333 2.83334Z" stroke="#F4FAFD"/>
  <path d="M8.21733 6.33334H7.66666C7.03813 6.33334 6.72386 6.33334 6.52859 6.5286C6.33333 6.72388 6.33333 7.03814 6.33333 7.66668V13.3333C6.33333 13.9619 6.33333 14.2761 6.52859 14.4714C6.72386 14.6667 7.03813 14.6667 7.66666 14.6667H7.99999C8.62853 14.6667 8.94279 14.6667 9.13806 14.4714C9.33333 14.2761 9.33333 13.9619 9.33333 13.3333L9.3334 11.0001C9.3334 9.89554 9.6854 9.00008 10.7253 9.00008C11.2451 9.00008 11.6667 9.44781 11.6667 10.0001V13.0001C11.6667 13.6286 11.6667 13.9429 11.8619 14.1381C12.0571 14.3334 12.3715 14.3334 13 14.3334H13.3325C13.9609 14.3334 14.2751 14.3334 14.4703 14.1382C14.6656 13.943 14.6657 13.6288 14.6658 13.0004L14.6667 9.33348C14.6667 7.67668 13.0909 6.3335 11.5312 6.3335C10.6433 6.3335 9.85113 6.76874 9.3334 7.44934C9.33333 7.02928 9.33333 6.81928 9.24213 6.66334C9.18433 6.56458 9.10206 6.48236 9.00333 6.42459C8.8474 6.33334 8.6374 6.33334 8.21733 6.33334Z" stroke="#F4FAFD" stroke-linejoin="round"/>
</svg>