<svg width="16" height="16" viewBox="0 0 16 16" fill="none" xmlns="http://www.w3.org/2000/svg">
<g id="telegram">
<path id="Vector" d="M7.99028 10.2722L10.1512 12.7291C10.9518 13.6393 11.3521 14.0944 11.7711 13.9836C12.1901 13.8728 12.3339 13.2739 12.6212 12.0759L14.2153 5.4306C14.6579 3.58555 14.8791 2.66303 14.3872 2.208C13.8953 1.75298 13.0427 2.0915 11.3374 2.76855L3.42585 5.90966C2.06196 6.45116 1.38002 6.72193 1.33672 7.1872C1.33229 7.2348 1.33222 7.28273 1.3365 7.33033C1.37837 7.7958 2.05948 8.06887 3.42171 8.61487C4.03893 8.86227 4.34754 8.986 4.56881 9.22293C4.59369 9.24953 4.61761 9.27713 4.64053 9.3056C4.8444 9.55893 4.9314 9.8914 5.1054 10.5563L5.43103 11.8007C5.60034 12.4477 5.685 12.7712 5.90673 12.8153C6.12846 12.8594 6.32151 12.5911 6.70761 12.0546L7.99028 10.2722ZM7.99028 10.2722L7.77841 10.0514C7.53728 9.80006 7.41674 9.67447 7.41674 9.51833C7.41674 9.3622 7.53728 9.23653 7.77841 8.9852L10.1604 6.50273" stroke="#F4FAFD" stroke-linecap="round" stroke-linejoin="round"/>
</g>
</svg>
